<?xml version="1.0" encoding="utf-8"?>
<!-- Generator: Adobe Illustrator 24.0.0, SVG Export Plug-In . SVG Version: 6.00 Build 0)  -->
<svg version="1.1" id="Layer_1" xmlns="http://www.w3.org/2000/svg" xmlns:xlink="http://www.w3.org/1999/xlink" x="0px" y="0px"
	 viewBox="0 0 1168 436.4" style="enable-background:new 0 0 1168 436.4;" xml:space="preserve">
<style type="text/css">
	.st0{fill:#C4D435;}
	.st1{fill:#B32266;stroke:#C4D435;stroke-width:10;stroke-miterlimit:10;}
	.st2{fill:#C3D336;}
</style>
<g>
	<g>
		<path class="st0" d="M101.1,158.8c4.1,0,7.8-1.5,10.6-4.3c2.7-2.7,4.2-6.4,4.2-10.4c0-8.5-6.4-14.8-14.9-14.8h0
			c-3.9,0-7.6,1.5-10.3,4.3c-2.8,2.8-4.3,6.5-4.3,10.4C86.4,152.5,92.7,158.8,101.1,158.8"/>
		<path class="st0" d="M164,110.7l-2.9,0.7l-23.9,5.7l-2.1,0.5l0.3,2.1l3.7,27l0,0.2v0c0.2,1.9,0.2,15.1,0.2,34.8
			c0,14.7-3.7,26.4-11.5,35.7c-6.9,8.2-15.1,12.2-25.2,12.2c-23.9,0-38.1-18.5-38.1-49.5l0-36.6v-2.4l-2.4,0l-20,0l-2.4,0l0,2.4
			l0,37.2c0,20.2,4.7,36.3,14.1,47.7c10.4,12.5,25.9,18.8,46,18.8c20,0,35.8-5.8,47.1-17.1c11.4-11.2,17.2-26.3,17.2-44.8l-0.1-71.8
			V110.7z"/>
		<path class="st0" d="M481.5,217.9L481.5,217.9c-8.1,0-14.9,6.7-14.9,14.7c0,8.3,6.5,14.8,14.9,14.8c8.2,0,15.1-6.7,15.1-14.7
			C496.6,224.5,489.8,217.9,481.5,217.9"/>
		<path class="st0" d="M514.3,217.8L514.3,217.8c-8.1,0-14.7,6.6-14.7,14.7c0,8.5,6.3,14.8,14.7,14.8c4,0,7.8-1.6,10.6-4.5
			c2.7-2.8,4.2-6.5,4.2-10.2C529.1,224.4,522.6,217.8,514.3,217.8"/>
		<path class="st0" d="M677,112.3l-1.8-0.6c-10-3.2-20.1-4.8-29.9-4.8h0c-16.4,0-29.4,4.9-38.7,14.4c-9.4,9.6-14.2,22.4-14.1,38.1
			c0,6.7,1.5,13.3,4.6,19.5l-45.1,0v0h-2.4l-6,0h-2.1v0h-2.1c-8.7,0-12.6-4.2-12.6-13.8l0-52.8l0-3l-2.9,0.6l-24.3,5.3l-2.2,0.5
			l0.3,2.2l4.1,26.2l0,20.9c0,9.5-3.9,13.8-12.5,13.8l-14.7,0l-21.9,0c-5.1,0-15.1-1.4-23.6-3.9c-9.4-2.8-15-6.5-15-9.9l0-18.3
			l2.4-21.1l0.2-2l-1.9-0.6c-10.3-3.2-20.3-4.8-30.3-4.8h-0.1c-32.4,0-52.4,18.5-53.5,49.4c-0.2,7.8-3.8,11.2-11.7,11.2l-11.7,0
			l-45.9,0l0-68.2l0-2.4l-2.4,0l-29.9,0c-14.9,0-27.2,4.9-36.5,14.7c-9.2,9.7-13.7,22-13.7,37.6c0,12.8,4.1,23.1,12.2,30.8
			c7.1,7,16.6,10.7,28.4,10.7l16.9,0c-1.6,15.8-10.2,26.5-26.1,32.6l-2.5,1l1.3,2.4l4.3,8l0.9,1.6l1.8-0.5
			c25.4-6.6,40.4-21.8,44.5-45.2l40.3,0h2.4l4.3,0l1.2,0h2.4l13.4,0c5.3,0,10.1-1,14.5-3c6.4,9.6,15.5,14.4,27,14.4
			c14.1,0,26.4-5.7,36.6-17c5.3,3.6,11.7,5.5,19.1,5.5l46,0v0h2.4l4.6,0h0.9h2.4v0l16.4,0c7.6,0,14.2-1.9,19.6-5.6
			c5.3,3.7,12,5.5,20,5.5l13,0l79.8,0c15.7,0,27.8-3.2,35.8-9.6c8.2-6.5,12.4-16.2,12.4-28.9l0-28.3l1.8-21.2L677,112.3z
			 M632.6,180.1L632.6,180.1l0-1.2c-3.8,0-15.2,0-15.2-23.4c0-29.7,17.6-29.7,23.4-29.7c3.3,0,6.1,0.3,8.5,0.9l1.4,10.3
			c0.9,6.2,1.4,11.8,1.4,16.9c0,16.8-6.4,25-19.5,25L632.6,180.1L632.6,180.1z M640.7,123.4L640.7,123.4L640.7,123.4L640.7,123.4z
			 M371.4,193.3L371.4,193.3l0-1.2c-8.8,0-14.8-10.1-14.8-25c0-20,7.6-29.7,23.2-29.7c2.9,0,5.4,0.3,7.7,0.9l1.4,9.8l0,36.3
			c-5.3,5.2-11,7.8-17.4,7.8L371.4,193.3L371.4,193.3z M221.1,180.3L221.1,180.3l0-1.2c-4.1,0-16.6,0-16.6-21.9
			c0-10,2.2-18.2,6.3-23.7c4.1-5.5,9.8-8.3,17-8.3l8,0l0,53.9l-14.8,0L221.1,180.3L221.1,180.3z"/>
		<path class="st0" d="M182,295.7v51.7c0,1.5-1.1,2.8-3.4,4c-2.3,1.1-5,1.7-8.1,1.7c-3.3,0-6.1-0.5-8.3-1.6
			c-2.2-1.1-3.3-2.4-3.3-4.1v-51.7c-0.9-3.6-2.2-6.1-3.8-7.8c-2.9-2.5-7-3.8-12.3-3.8c-5.1,0-9.1,1.1-11.9,3.3
			c-2.8,2.2-4.2,4.9-4.2,8.3v51.7c0,1.5-1.1,2.8-3.4,4c-2.3,1.1-5,1.7-8.1,1.7c-3.3,0-6.1-0.5-8.3-1.6c-2.2-1.1-3.3-2.4-3.3-4.1
			v-51.7c-0.9-3.6-2.2-6.1-3.8-7.8c-2.9-2.5-7-3.8-12.3-3.8c-5.1,0-9.1,1.1-11.9,3.3c-2.8,2.2-4.2,4.9-4.2,8.3v51.7
			c0,1.5-1.1,2.8-3.4,4c-2.3,1.1-5,1.7-8.1,1.7c-3.3,0-6.1-0.5-8.3-1.6c-2.2-1.1-3.3-2.4-3.3-4.1v-69c0-1.5,1.1-2.8,3.4-4
			c2.3-1.1,5-1.7,8.1-1.7c3.9,0,7,0.7,9.2,2.2c5-1.5,11.2-2.2,18.5-2.2c6.5,0,11.9,0.5,16.2,1.5c4.3,1,8.1,2.5,11.5,4.6
			c3.1-1.8,7-3.3,11.7-4.4c4.7-1.1,10-1.6,16-1.6c13.8,0,24.3,2.8,31.3,8.4C179.4,285.6,182,290.4,182,295.7"/>
		<path class="st0" d="M268.2,295.7v51.7c0,1.5-1.1,2.8-3.4,4c-2.3,1.1-5,1.7-8.1,1.7c-2,0-3.8-0.2-5.2-0.5c-1.4-0.3-2.8-0.9-4-1.7
			c-5,1.5-11.2,2.2-18.5,2.2c-13.9,0-24.3-2.8-31.3-8.4c-5.3-4.4-8-9.2-8-14.5c0-5.2,2.6-9.9,8-14.3c7.4-5.7,17.8-8.6,31.3-8.6
			c5.1,0,9-1,11.7-3.1c2.6-2.1,4.1-4.9,4.5-8.5c-0.9-3.7-2.3-6.3-4-7.8c-2.9-2.5-7-3.8-12.2-3.8c-5.1,0-9.1,1.1-11.9,3.3
			c-2.8,2.2-4.2,4.9-4.2,8.3c0,1.5-1.1,2.8-3.4,4c-2.3,1.1-5,1.7-8.1,1.7c-3.3,0-6.1-0.5-8.3-1.6c-2.2-1.1-3.3-2.4-3.3-4.1
			c0-5.2,2.6-9.9,8-14.3c7.4-5.7,17.8-8.6,31.3-8.6c13.9,0,24.3,2.8,31.3,8.5C265.5,285.6,268.2,290.4,268.2,295.7 M245.1,330.2
			v-13.1c-4.6,1-10,1.6-16.2,1.6c-5.1,0-9.1,1.1-11.9,3.3c-2.8,2.2-4.2,4.9-4.2,8.3c0.8,3.7,2.1,6.3,3.8,7.8c2.9,2.5,7,3.8,12.3,3.8
			c5.1,0,9-1,11.7-3.1C243.3,336.6,244.8,333.8,245.1,330.2"/>
		<path class="st0" d="M354.4,278.5v86c0,5.2-2.7,9.9-8,14.3c-7.4,5.7-17.8,8.6-31.3,8.6c-13.9,0-24.3-2.8-31.3-8.4
			c-5.3-4.4-8-9.2-8-14.5c0-1.5,1.1-2.8,3.4-4c2.3-1.1,5-1.7,8.1-1.7c3.3,0,6.1,0.5,8.3,1.6c2.2,1.1,3.3,2.4,3.3,4.1
			c0.9,3.7,2.3,6.3,4,7.8c2.9,2.5,7,3.8,12.2,3.8c5.1,0,9.1-1.1,11.9-3.3c2.8-2.2,4.2-4.9,4.2-8.3v-12.9c-4.5,1-9.9,1.5-16.2,1.5
			c-13.9,0-24.3-2.8-31.3-8.4c-5.3-4.4-8-9.2-8-14.5v-51.7c0-1.5,1.1-2.8,3.4-4c2.3-1.1,5-1.7,8.1-1.7c3.3,0,6.1,0.5,8.3,1.6
			c2.2,1.1,3.3,2.4,3.3,4.1v51.7c0.9,3.7,2.3,6.3,4,7.8c2.9,2.5,7,3.8,12.2,3.8c5.1,0,9.1-1.1,11.9-3.3c2.8-2.2,4.2-4.9,4.2-8.3
			v-51.7c0-1.5,1.1-2.8,3.4-4c2.3-1.1,5-1.7,8.1-1.7c3.3,0,6.1,0.5,8.3,1.6C353.3,275.5,354.4,276.9,354.4,278.5"/>
		<path class="st0" d="M496,295.7v51.7c0,1.5-1.1,2.8-3.4,4c-2.3,1.1-5,1.7-8.1,1.7c-3.3,0-6.1-0.5-8.3-1.6
			c-2.2-1.1-3.3-2.4-3.3-4.1v-51.7c-0.9-3.6-2.2-6.1-3.8-7.8c-2.9-2.5-7-3.8-12.3-3.8c-5.1,0-9.1,1.1-11.9,3.3
			c-2.8,2.2-4.2,4.9-4.2,8.3v51.7c0,1.5-1.1,2.8-3.4,4c-2.3,1.1-5,1.7-8.1,1.7c-3.3,0-6.1-0.5-8.3-1.6c-2.2-1.1-3.3-2.4-3.3-4.1
			v-51.7c-0.9-3.6-2.2-6.1-3.8-7.8c-2.9-2.5-7-3.8-12.3-3.8c-5.1,0-9.1,1.1-11.9,3.3c-2.8,2.2-4.2,4.9-4.2,8.3v51.7
			c0,1.5-1.1,2.8-3.4,4c-2.3,1.1-5,1.7-8.1,1.7c-3.3,0-6.1-0.5-8.3-1.6c-2.2-1.1-3.3-2.4-3.3-4.1v-69c0-1.5,1.1-2.8,3.4-4
			c2.3-1.1,5-1.7,8.1-1.7c3.9,0,7,0.7,9.2,2.2c5-1.5,11.2-2.2,18.5-2.2c6.5,0,11.9,0.5,16.2,1.5c4.3,1,8.1,2.5,11.5,4.6
			c3.1-1.8,7-3.3,11.7-4.4c4.7-1.1,10-1.6,16-1.6c13.8,0,24.3,2.8,31.3,8.4C493.3,285.6,496,290.4,496,295.7"/>
		<path class="st0" d="M582.2,295.7v34.5c0,5.2-2.7,9.9-8,14.3c-7.4,5.7-17.8,8.6-31.3,8.6c-13.8,0-24.3-2.8-31.3-8.4
			c-5.3-4.4-8-9.2-8-14.5v-34.5c0-5.2,2.6-9.9,8-14.3c7.4-5.7,17.8-8.6,31.3-8.6c13.9,0,24.3,2.8,31.3,8.4
			C579.5,285.6,582.2,290.4,582.2,295.7 M559.1,295.7c-0.9-3.7-2.3-6.3-4-7.8c-2.9-2.5-7-3.8-12.2-3.8c-5.1,0-9.1,1.1-11.9,3.3
			c-2.8,2.2-4.2,4.9-4.2,8.3v34.5c0.9,3.7,2.1,6.3,3.8,7.8c2.9,2.5,7,3.8,12.3,3.8c5.1,0,9-1,11.7-3.1c2.6-2.1,4.1-4.9,4.5-8.4
			V295.7z"/>
		<path class="st0" d="M668.3,295.7v51.7c0,1.5-1.1,2.8-3.4,4c-2.3,1.1-5,1.7-8.1,1.7c-3.3,0-6.1-0.5-8.3-1.6
			c-2.2-1.1-3.3-2.4-3.3-4.1v-51.7c-0.9-3.7-2.3-6.3-4-7.8c-2.9-2.5-7-3.8-12.2-3.8c-5.1,0-9.1,1.1-11.9,3.3
			c-2.8,2.2-4.2,4.9-4.2,8.3v51.7c0,1.5-1.1,2.8-3.4,4c-2.3,1.1-5,1.7-8.1,1.7c-3.3,0-6.1-0.5-8.3-1.6c-2.2-1.1-3.3-2.4-3.3-4.1v-69
			c0-1.5,1.1-2.8,3.4-4c2.3-1.1,5-1.7,8.1-1.7c3.9,0,7,0.7,9.1,2.2c5-1.5,11.2-2.2,18.6-2.2c13.8,0,24.3,2.8,31.3,8.4
			C665.7,285.6,668.3,290.4,668.3,295.7"/>
	</g>
	<path class="st1" d="M1016,408.3H860.3c-62.2,0-112.6-50.4-112.6-112.6V140c0-62.2,50.4-112.6,112.6-112.6H1016
		c62.2,0,112.6,50.4,112.6,112.6v155.8C1128.6,357.9,1078.2,408.3,1016,408.3z"/>
	<g>
		<path class="st2" d="M898.7,179l-1.6,18.5l0,24.7c0,20.8-13.3,31.3-39.8,31.3l-72.4,0l49.7-16c-3.6-6-5.3-12.5-5.4-19
			c0-13.2,3.9-23.7,11.7-31.7c7.8-8,18.5-11.9,32.2-11.9C881.8,174.9,890.4,176.3,898.7,179z M880.1,198.7l-1.4-10.3
			c-2.7-0.9-5.9-1.2-9.3-1.2c-14.9,0-22.4,9.3-22.4,27.9c0,14.9,5.2,22.4,15.3,22.4c12.6,0,19-8,19-23.9
			C881.3,209.6,881,204.6,880.1,198.7z"/>
		<path class="st2" d="M899.9,259.9l18.5,1.6l24.7,0c20.8,0,31.3,13.3,31.3,39.8l0,72.4l-16-49.7c-6,3.6-12.5,5.3-19,5.4
			c-13.2,0-23.7-3.9-31.7-11.7c-8-7.8-11.9-18.5-11.9-32.2C895.8,276.8,897.2,268.3,899.9,259.9z M919.6,278.6l-10.3,1.4
			c-0.9,2.7-1.2,5.9-1.2,9.3c0,14.9,9.3,22.4,27.9,22.4c14.9,0,22.4-5.2,22.4-15.3c0-12.6-8-19-23.9-19
			C930.5,277.4,925.5,277.7,919.6,278.6z"/>
		<path class="st2" d="M970.8,175.7l-18.5-1.6l-24.7,0c-20.8,0-31.3-13.3-31.3-39.8l0-72.4l16,49.7c6-3.6,12.5-5.3,19-5.4
			c13.2,0,23.7,3.9,31.7,11.7s11.9,18.5,11.9,32.2C974.9,158.8,973.5,167.4,970.8,175.7z M951.1,157.1l10.3-1.4
			c0.9-2.7,1.2-5.9,1.2-9.3c0-14.9-9.3-22.4-27.9-22.4c-14.9,0-22.4,5.2-22.4,15.3c0,12.6,8,19,23.9,19
			C940.2,158.3,945.2,158,951.1,157.1z"/>
		<path class="st2" d="M977.6,256.6l1.6-18.5l0-24.7c0-20.8,13.3-31.3,39.8-31.3l72.4,0l-49.7,16c3.6,6,5.3,12.5,5.4,19
			c0,13.2-3.9,23.7-11.7,31.7c-7.8,8-18.5,11.9-32.2,11.9C994.5,260.7,985.9,259.3,977.6,256.6z M996.2,236.8l1.4,10.3
			c2.7,0.9,5.9,1.2,9.3,1.2c14.9,0,22.4-9.3,22.4-27.9c0-14.9-5.2-22.4-15.3-22.4c-12.6,0-19,8-19,23.9
			C995,226,995.3,231,996.2,236.8z"/>
	</g>
</g>
</svg>
